<?xml version="1.0" encoding="utf-8"?>
<!-- Generator: Adobe Illustrator 18.0.0, SVG Export Plug-In . SVG Version: 6.00 Build 0)  -->
<!DOCTYPE svg PUBLIC "-//W3C//DTD SVG 1.1//EN" "http://www.w3.org/Graphics/SVG/1.1/DTD/svg11.dtd">
<svg version="1.1" id="图层_1" xmlns="http://www.w3.org/2000/svg" xmlns:xlink="http://www.w3.org/1999/xlink" x="0px" y="0px"
	 viewBox="0 0 612 792" enable-background="new 0 0 612 792" xml:space="preserve">
<g>
	<path fill="#FFFFFF" d="M433.4,317c7.5,0,13.1,0,20.5,1.9C435.3,233,345.7,171.4,241.2,171.4c-115.7,0-210.8,78.4-210.8,179.1
		c0,57.8,31.7,104.5,84,141.8l-20.5,63.4l72.8-37.3c26.1,5.6,46.6,11.2,74.6,11.2c7.5,0,13.1,0,20.5,0c-3.7-14.9-5.6-28-5.6-44.8
		C254.3,391.6,332.6,317,433.4,317z M319.6,259.1c16.8,0,26.1,11.2,26.1,26.1s-11.2,26.1-26.1,26.1c-14.9,0-31.7-11.2-31.7-26.1
		S304.6,259.1,319.6,259.1z M172.2,311.4c-14.9,0-31.7-11.2-31.7-26.1c0-16.8,16.8-26.1,31.7-26.1c14.9,0,26.1,11.2,26.1,26.1
		C198.3,302,189,311.4,172.2,311.4z"/>
	<path fill="#FFFFFF" d="M625.6,481.2c0-84-84-153-179.1-153c-100.8,0-179.1,69-179.1,153s78.4,153,179.1,153
		c20.5,0,42.9-5.6,63.4-11.2l57.8,31.7l-16.8-52.2C593.9,570.7,625.6,527.8,625.6,481.2z M388.6,455c-11.2,0-20.5-11.2-20.5-20.5
		c0-11.2,11.2-20.5,20.5-20.5c16.8,0,26.1,11.2,26.1,20.5C414.7,443.9,403.5,455,388.6,455z M504.3,455c-11.2,0-20.5-11.2-20.5-20.5
		c0-11.2,11.2-20.5,20.5-20.5c14.9,0,26.1,11.2,26.1,20.5C530.4,443.9,521.1,455,504.3,455z"/>
</g>
</svg>
