<?xml version="1.0" encoding="utf-8"?>
<!-- Generator: Adobe Illustrator 18.0.0, SVG Export Plug-In . SVG Version: 6.00 Build 0)  -->
<!DOCTYPE svg PUBLIC "-//W3C//DTD SVG 1.1//EN" "http://www.w3.org/Graphics/SVG/1.1/DTD/svg11.dtd">
<svg version="1.1" id="图层_1" xmlns="http://www.w3.org/2000/svg" xmlns:xlink="http://www.w3.org/1999/xlink" x="0px" y="0px"
	 viewBox="0 0 612 792" enable-background="new 0 0 612 792" xml:space="preserve">
<g>
	<path fill="#FFFFFF" d="M498.4,417.4c-24.3-3.7-13.1-16.8-13.1-16.8s22.5-37.4-3.7-65.5c-33.7-33.7-117.9,3.7-117.9,3.7
		c-31.8,9.4-24.3-3.7-18.7-29.9c0-29.9-9.4-78.6-95.4-48.7c-86.1,29.9-159.1,131-159.1,131C39.9,458.6,45.5,511,45.5,511
		c13.1,116,136.6,147.9,232.1,155.3c101.1,7.5,237.7-35.6,278.9-121.7C597.6,456.7,522.7,421.1,498.4,417.4z M285.1,634.5
		c-101.1,3.7-181.5-44.9-181.5-112.3S184,402.4,285.1,396.8c101.1-3.7,181.5,37.4,181.5,102.9C466.6,567.1,386.1,628.9,285.1,634.5z
		"/>
	<path fill="#FFFFFF" d="M266.3,439.9c-101.1,13.1-89.8,106.7-89.8,106.7s-1.9,29.9,26.2,44.9c58,31.8,119.8,13.1,149.7-26.2
		C384.3,525.9,367.4,428.6,266.3,439.9z M240.1,572.7c-18.7,1.9-33.7-9.4-33.7-24.3c0-15,13.1-31.8,31.8-33.7
		c22.5-1.9,35.6,11.2,35.6,26.2C273.8,555.9,258.9,570.9,240.1,572.7z M300,522.2c-5.6,5.6-15,3.7-16.8-1.9
		c-3.7-5.6-1.9-15,3.7-18.7c7.5-5.6,15-3.7,18.7,1.9C309.4,509.1,305.6,518.5,300,522.2z"/>
	<path fill="#FFFFFF" d="M548.9,376.2c7.5,0,15-5.6,16.8-13.1v-1.9c13.1-110.4-89.8-91.7-89.8-91.7c-9.4,0-16.8,7.5-16.8,16.8
		s7.5,16.8,16.8,16.8c73-16.8,58,58,58,58C532.1,368.7,539.6,376.2,548.9,376.2z"/>
	<path fill="#FFFFFF" d="M535.8,183.4c-35.6-7.5-73-1.9-82.3,0c0,0-1.9,0-1.9,1.9l0,0c-9.4,3.7-16.8,13.1-16.8,22.5
		c0,13.1,11.2,24.3,24.3,24.3c0,0,13.1-1.9,22.5-5.6c9.4-3.7,82.3-1.9,119.8,58c20.6,44.9,9.4,74.9,7.5,80.5c0,0-5.6,11.2-5.6,22.5
		c0,13.1,11.2,22.5,24.3,22.5c11.2,0,20.6-1.9,22.5-20.6l0,0C687.4,260.2,599.5,198.4,535.8,183.4z"/>
</g>
</svg>
